<svg xmlns="http://www.w3.org/2000/svg" xmlns:xlink="http://www.w3.org/1999/xlink" width="98" height="95" viewBox="0 0 98 95"><defs><path id="qb1wa" d="M73.48 2046.75a4.1 4.1 0 0 0 4.24 4.23 4.09 4.09 0 0 0 4.25-4.23 4.1 4.1 0 0 0-4.25-4.22 4.1 4.1 0 0 0-4.24 4.22zm4.24-5.86c3.46 0 6.06 2.47 6.06 5.86 0 3.4-2.6 5.84-6.06 5.84-3.46 0-6.05-2.44-6.05-5.84 0-3.39 2.6-5.86 6.05-5.86zm10.54.2c2.47 0 3.43 1.1 3.43 2.65 0 .66-.26 1.3-.61 1.68a3.56 3.56 0 0 1 1.84 3.18c0 1.96-1.49 3.8-4.36 3.8h-2.7v-11.3zm-.74 3.88a5.36 5.36 0 0 1 2.2.02c.24-.26.4-.69.4-1.12 0-.9-.58-1.5-1.76-1.5h-.84zm0 6.03h1.1c1.61 0 2.57-1.12 2.57-2.41 0-1.32-1-2.4-2.48-2.4-.34 0-.79 0-1.19.13zm14.6-9.9v1.5h-5.33v3.31h3.62v1.47H96.8v3.5h5.32v1.52h-6.98v-11.3zm8.4 1.58a5.4 5.4 0 0 0-1.15-.13c-2.53 0-4.31 1.69-4.31 4.2 0 2.57 1.78 4.21 4.27 4.21.42 0 .8-.05 1.19-.14v1.67c-.4.07-.83.11-1.22.11-3.46 0-6.05-2.45-6.05-5.85 0-3.39 2.6-5.86 6.05-5.86.42 0 .83.05 1.22.13zm9.09 3.92v-5.5h1.66v11.3h-1.66v-3.72l-5.3-4.52v8.24h-1.68v-11.75zm5.23-5.5h1.66v11.3h-1.66zm1.66-2.41l1.2.64-2.67 1.37-.7-.51zm11.35 2.4c3.35 0 5.83 2.37 5.83 5.66s-2.48 5.65-5.83 5.65h-3.53v-11.3zm-1.85 9.76h1.85a3.93 3.93 0 0 0 4.09-4.1c0-2.39-1.67-4.1-4.09-4.1H136zm11.46-9.75v7.63c0 1.55 1.3 2.31 2.66 2.31 1.28 0 2.68-.76 2.68-2.3v-7.64h1.66v7.87c0 2.26-2.24 3.62-4.34 3.62-2.1 0-4.32-1.36-4.32-3.62v-7.87zm1.1-1.58c0-.83.73-1.42 1.63-1.42.9 0 1.63.59 1.63 1.42s-.74 1.42-1.63 1.42c-.9 0-1.64-.6-1.64-1.42zm.97 0c0 .35.29.57.66.57.38 0 .65-.22.65-.57 0-.34-.27-.57-.65-.57-.37 0-.66.23-.66.57zm13.62 7.23l5.64-6.02v11.67h-1.67v-7.76l-3.97 4.43-4.02-4.43v7.76h-1.66v-11.67z"/><path id="qb1wb" d="M88.83 1995.02c-.23-7.8 6.1-14.33 14.8-16.88a3.11 3.11 0 0 1-1.24-2.47 3.23 3.23 0 0 1 3.29-3.17h.11c-1.8-1-3-2.85-3-4.98 0-3.2 2.71-5.79 6.05-5.79 2.14 0 4 1.06 5.08 2.65v-.1a6.15 6.15 0 0 1 6.28-6.03c3.46 0 6.27 2.7 6.27 6.02v.11a6.11 6.11 0 0 1 5.08-2.65c3.34 0 6.05 2.6 6.05 5.79 0 2.13-1.2 3.98-3 4.98h.12a3.23 3.23 0 0 1 3.28 3.17c0 1-.5 1.9-1.26 2.47 8.72 2.55 15.05 9.07 14.82 16.88a6.35 6.35 0 0 1 5.01 5.22 6.43 6.43 0 0 1-5.54 7.23 5.15 5.15 0 0 1-3.8-.86c-.02.77-.1 1.56-.21 2.11-1.27 5.78-6.76 9.56-12.99 8.4l-.1-.02a6.33 6.33 0 0 1 1.92 10.28 6.4 6.4 0 0 1-9.03 0c-.11-.11-.2-.24-.3-.35a6.35 6.35 0 0 1-12.66 0c-.1.11-.18.24-.29.35a6.4 6.4 0 0 1-9.03 0 6.33 6.33 0 0 1 1.92-10.28l-.1.03c-6.23 1.15-11.72-2.63-12.99-8.4a13 13 0 0 1-.2-2.12 5.16 5.16 0 0 1-3.81.86 6.44 6.44 0 0 1-5.54-7.23 6.35 6.35 0 0 1 5.01-5.22zm21.44 19.53c-.6-.6-1.13-1.28-1.59-1.99-3.59.78-7.51.27-9.96-2.21-3.15-3.2-3.2-7.5-3.41-8.7-.24-1.35-.87-2.62-2.66-2.93a2.98 2.98 0 0 0-3.42 2.45c-.2 1.31.34 2.54 1.56 3.04 1.31.45 2.47-.44 2.58-1.4.1-.87-.41-1.57-1.08-1.67-.68-.1-1.3.37-1.4 1.04l-.01.1-.3-.04c-.1-.42-.03-.87.22-1.27.51-.8 1.62-1 2.45-.5 1 .6 1.17 1.72 1.18 2.33.04 1.06-.28 2 .01 3.9a11.1 11.1 0 0 0 13.13 8.86c1-.18 1.87-.56 2.7-1.01zm17.08-27.42a4.8 4.8 0 0 1 4.46.37 15.21 15.21 0 0 0-5.87-4.76c-3.7-1.88-5.16-4.01-5.74-6.12-.59 2.11-2.04 4.24-5.75 6.12-2.9 1.48-4.39 2.8-5.87 4.76a4.8 4.8 0 0 1 4.45-.36l4.42 1.75c1.4 1.24 1.77 3.93 1.67 4.99l-.33 5.43s-.62.2-1.14.8c-.57.66-.65 1.47-.53 2.37.1.64.67.37.67.37l1.21-.44c.12.32.48.78 1.2.8a1.24 1.24 0 0 0 1.19-.8l1.2.44s.58.27.68-.37c.12-.9.04-1.7-.53-2.36a2.82 2.82 0 0 0-1.14-.81l-.33-5.43c-.1-1.06.27-3.75 1.67-5zm-21.58 9.38c0 2.21.55 4.66 1.27 6.53 0 0 .17 2.32.92 4.64a14.2 14.2 0 0 0 3.48 6.02c2.95 2.88 6.8 3.96 6.8 3.96h3.9s3.86-1.08 6.8-3.96a14.2 14.2 0 0 0 3.5-6.02c.74-2.32.92-4.64.92-4.64a19.33 19.33 0 0 0 1.26-6.53c0-1.97-.35-3.8-.95-5.46a5.13 5.13 0 0 0-2.5-2.39c-1.73-.8-3.4-.65-3.56-.64 0 0-3.64 1.28-3.7 1.32-.67.35-1.25 1.34-1.6 2.45-.32 1.18-.18 1.97-.12 2.9.09 1.31.02 3.49-.13 4.3 0 0 .68.35.95.6.57.54.93 1.3.93 2.2 0 2.07-1.14 2.35-1.14 2.35h-2.01c-.3.3-.93.25-1.19 0h-2.01s-1.14-.28-1.14-2.35c0-.9.36-1.66.93-2.2.27-.25.95-.6.95-.6-.15-.81-.22-2.99-.13-4.3.06-.93.2-1.72-.11-2.9-.36-1.11-.94-2.1-1.6-2.45-.07-.04-3.71-1.32-3.71-1.32-.17 0-1.83-.17-3.55.64a5.15 5.15 0 0 0-2.5 2.39c-.61 1.66-.96 3.5-.96 5.46zm36.35 10.41c1.62-2.51 1.65-5.08 1.96-6.72a14.74 14.74 0 0 1-10.58 8.68c-.35.97-.79 1.96-1.33 2.91 3.9.16 7.71-1.53 9.95-4.87zm-45.81-6.72c.28 1.35.34 4.2 1.96 6.72a11.28 11.28 0 0 0 9.95 4.87c-.54-.95-.98-1.94-1.33-2.9a14.75 14.75 0 0 1-10.58-8.69zm13.87 24.61a3.18 3.18 0 1 0-3.18-3.17 3.18 3.18 0 0 0 3.18 3.17zm.01 1.32a4.51 4.51 0 0 1-3.15-7.72 4.9 4.9 0 0 0-1.48 7.96 4.96 4.96 0 0 0 7 0c.57-.58.96-1.26 1.19-2a4.5 4.5 0 0 1-3.56 1.76zm14.38-1.87a4.46 4.46 0 0 1-1.27 3.74 4.54 4.54 0 0 1-7.72-3.24 4.87 4.87 0 0 0 4.62 6.67c2.73 0 4.94-2.2 4.94-4.93 0-.81-.22-1.57-.57-2.24zm-2.21 2.81a3.16 3.16 0 0 0 0-4.48 3.2 3.2 0 0 0-4.51 0 3.16 3.16 0 0 0 0 4.48 3.2 3.2 0 0 0 4.5 0zm9.87-10.45a11.46 11.46 0 0 1-2.8-1.47c-3.46 2.8-7.03 3.97-7.03 3.97H118s-3.57-1.18-7.03-3.97c-.85.61-1.8 1.1-2.8 1.47a6.28 6.28 0 0 1 7.23 5.74 6.35 6.35 0 0 1 9.6 0 6.28 6.28 0 0 1 7.24-5.74zm-5.21 5.02a3.18 3.18 0 1 0 6.36-.02 3.18 3.18 0 0 0-6.36.02zm7.7-.01a4.51 4.51 0 0 1-8.08 2.75 4.96 4.96 0 0 0 8.19 2 4.9 4.9 0 0 0-1.48-7.97 4.47 4.47 0 0 1 1.37 3.22zm16.45-20.46a2.98 2.98 0 0 0-3.43-2.45c-1.8.3-2.42 1.58-2.66 2.93-.21 1.2-.26 5.5-3.4 8.7-2.46 2.48-6.38 3-9.97 2.21a12.5 12.5 0 0 1-1.6 1.99c.84.45 1.72.83 2.7 1.01a11.1 11.1 0 0 0 13.14-8.87c.3-1.88-.03-2.83.01-3.89.01-.6.18-1.74 1.18-2.34.82-.49 1.94-.28 2.45.51.25.4.31.85.22 1.27l-.3.05v-.11a1.23 1.23 0 0 0-1.4-1.04c-.68.1-1.2.8-1.1 1.66.12.97 1.28 1.86 2.6 1.41 1.21-.5 1.75-1.73 1.56-3.04zm-4.26-3.78c.16-.04.37-.07.62-.1a4.46 4.46 0 0 1 5.13 3.66c.3 2.72-1.35 4.04-2.37 4.47-1.08.46-1.9.31-1.9.32.7.34 1.51.48 2.44.34a5 5 0 0 0 4.3-5.62 5.03 5.03 0 0 0-5.77-4.13 5.2 5.2 0 0 0-2.45 1.06zm-21.16-19.86v-.4a29.25 29.25 0 0 1 4-.12 14.8 14.8 0 0 0-8.93-3.36c-.05 1.42.35 5.6 6.01 8.37 5.8 2.67 10.67 9.52 8.55 18.38a9.66 9.66 0 0 0 2.73-6.68c0-4.76-3.42-8.74-7.15-10.61v-.4c4.47 1.4 8.65 5.8 8.65 11.15 0 4.05-2.31 7.36-4.73 9.01-.06.62-.31 2.71-1.08 5.12 5.8-1.7 9.64-6.7 9.64-13.07 0-9.11-9.31-13.55-15.57-15v-.38c7.06.79 17.26 6.57 17.26 15.43 0 1-.11 1.98-.32 2.92a5.68 5.68 0 0 1 4.34-2.95c.29-.04.56-.06.84-.07-.72-9.61-10.25-17.37-22.91-17.37-.45 0-.89.01-1.33.03zm8.85-.1a1.9 1.9 0 0 0 1.9-1.9 1.9 1.9 0 0 0-3.8 0c0 1.05.86 1.9 1.9 1.9zm-4.6-12.62c2.48 0 4.5 1.9 4.5 4.24 0 1.05-.4 2-1.08 2.75a4.58 4.58 0 0 0 2.75-4.15 4.7 4.7 0 0 0-4.8-4.59 4.8 4.8 0 0 0-4.45 2.9 4.63 4.63 0 0 1 3.08-1.15zm-.02 7.1c1.71 0 3.1-1.3 3.1-2.9 0-1.6-1.39-2.89-3.1-2.89-1.71 0-3.1 1.3-3.1 2.9 0 1.6 1.39 2.89 3.1 2.89zm-13.94-4.74a3.84 3.84 0 0 1-.23-1.31c0-2.11 1.7-3.84 3.9-4.08v-1.55h1.02v1.55c2.2.24 3.9 1.97 3.9 4.08 0 .33-.05.66-.13.97l.1-.06c.4-.69.63-1.48.63-2.33a4.94 4.94 0 0 0-5.03-4.83 4.94 4.94 0 0 0-5.04 4.83c0 1.02.33 1.95.88 2.73zm3.67-1.43v-2.68a3.06 3.06 0 0 0-2.7 2.95c0 1.65 1.43 2.98 3.2 2.98 1.78 0 3.22-1.33 3.22-2.98a3.06 3.06 0 0 0-2.7-2.95v2.68zm-10.1 11.1c2.44-2.47 6.21-4.06 10.46-4.06h.25c4.25 0 8.02 1.59 10.45 4.05.97-.43.9-1.66.3-2.41-2.17-2.34-6.16-4.34-10.75-4.34h-.25c-4.6 0-8.58 2-10.74 4.34-.62.75-.68 1.98.29 2.41zm.8-10.72c-1.71 0-3.1 1.3-3.1 2.9 0 1.6 1.39 2.89 3.1 2.89 1.71 0 3.1-1.3 3.1-2.9 0-1.6-1.39-2.89-3.1-2.89zm-4.52 2.93a4.38 4.38 0 0 1 4.5-4.24c1.2 0 2.27.43 3.08 1.15a4.8 4.8 0 0 0-4.45-2.9 4.7 4.7 0 0 0-4.8 4.6 4.58 4.58 0 0 0 2.75 4.14 4.09 4.09 0 0 1-1.08-2.75zm-.12 8.38a1.9 1.9 0 1 0 0-3.8 1.9 1.9 0 0 0 0 3.8zm-14.53 17.51a5.68 5.68 0 0 1 4.34 2.95c-.2-.94-.32-1.92-.32-2.92 0-8.86 10.2-14.64 17.26-15.43v.38c-6.25 1.45-15.57 5.89-15.57 15 0 6.36 3.85 11.36 9.64 13.07-.77-2.4-1.02-4.5-1.08-5.12a11.15 11.15 0 0 1-4.73-9.01c0-5.36 4.18-9.74 8.65-11.14v.39c-3.73 1.87-7.15 5.85-7.15 10.6 0 3 1.34 5.18 2.73 6.69-2.12-8.86 2.75-15.7 8.55-18.38 5.67-2.77 6.06-6.96 6.01-8.38-3.4.12-6.42 1.3-8.92 3.37a31.46 31.46 0 0 1 3.99.13v.4c-.44-.03-.88-.04-1.33-.04-12.67 0-22.19 7.76-22.91 17.37.28.01.56.03.84.07zm.76 10.8s-.82.14-1.9-.32c-1.02-.43-2.68-1.75-2.37-4.47a4.46 4.46 0 0 1 5.13-3.67l.62.1a5.2 5.2 0 0 0-2.45-1.05 5.02 5.02 0 0 0-5.77 4.13 5 5 0 0 0 4.3 5.62c.93.14 1.73 0 2.44-.34zm15.5-11.3l.96-.83c.06-1.24 1.35-3.04 3.5-3.43 2.04-.37 4.1.3 5.11 1.83l-.18.16a4.7 4.7 0 0 0-1.18-.82l-.1.12c.4.43 1 1.25 1.12 2.52l-.23.24-.6-.12-1.65.75v-.22l1.5-1.1a4.13 4.13 0 0 0-2.12-1.21c.1.2.18.43.18.68 0 .8-.65 1.43-1.44 1.43a1.43 1.43 0 0 1-1.4-1.77 6 6 0 0 0-1.63 1.31c.7.62 1.75 1.02 2.95 1.02.36 0 .7-.04 1.04-.1v.39l-1.05.48c-1.41-.02-2.6-.65-3.12-1.57zm4.92-1.1a.55.55 0 0 0 .2-1.06l-.52.07a.54.54 0 0 0-.23.44c0 .3.25.54.55.54zm6.2 13.63s.82-.42 1.38.22c.04.06.11.1.2.1.1 0 .2-.1.2-.1.55-.64 1.38-.22 1.38-.22l2.41 1.08c.25-.05 1.12-.41 1.12-.41l1.25 1.32-4.88-.7-1.48.48-1.48-.49-4.89.71 1.25-1.32s.87.36 1.12.41zm5.86-12.86l-.61.12-.23-.24a4.23 4.23 0 0 1 1.12-2.52l-.1-.12c-.38.15-.9.56-1.18.82l-.18-.16c1-1.53 3.07-2.2 5.1-1.83 2.16.39 3.45 2.2 3.5 3.43l.97.83-1.66-.24c-.51.92-1.7 1.55-3.12 1.57l-1.05-.48v-.4c.33.07.68.11 1.04.11 1.2 0 2.26-.4 2.96-1.02-.28-.3-.86-.9-1.64-1.3a1.44 1.44 0 0 1-1.4 1.77c-.8 0-1.44-.65-1.44-1.44 0-.25.07-.48.19-.68-.84.19-1.57.62-2.13 1.22l1.5 1.09v.21zm3.47-.78c.3 0 .55-.24.55-.54 0-.18-.1-.34-.23-.44l-.52-.07a.55.55 0 0 0-.35.5c0 .3.25.55.55.55zm-4.06 15.94c-.04.28-.4 2-2.3 2-.53 0-1-.18-1.4-.48-.38.3-.86.49-1.38.49-1.92 0-2.27-1.73-2.3-2.01l.5-.08a2.5 2.5 0 0 0 2.18 1.33c.36 0 .7-.08 1-.22.31.14.65.22 1 .22.94 0 1.77-.56 2.18-1.33z"/></defs><g><g transform="translate(-71 -1958)"><g><use fill="#231f20" xlink:href="#qb1wa"/></g><g><use fill="#231f20" xlink:href="#qb1wb"/></g></g></g></svg>